# xmcd CD database file
#
# Track frame offsets:
#	150
#	18151
#	32019
#	46191
#	59728
#	74891
#	92295
#	108677
#	124588
#	143825
#	163849
#	181429
#
# Disc length: 2628 seconds
#
# Revision: 0
# Processed by: cddbd v1.5.1PL0 Copyright (c) Steve Scherf et al.
# Submitted via: CDex 1.51
#
DISCID=a90a420c
DTITLE=Route 44 - Weekend
DYEAR=1900
DGENRE=Country
TTITLE0=Working For The Weekend
TTITLE1=Undercover Agent For The  Blues
TTITLE2=Sensation Of My Life
TTITLE3=Current News
TTITLE4=Keep Me Hangin' On
TTITLE5=Let Us Dance Up (To The Sky)
TTITLE6=Stand By Me
TTITLE7=When The Eagle Flies
TTITLE8=Togetherness
TTITLE9=Mustand Sally
TTITLE10=Little Warriour
TTITLE11=Red House Blues
EXTD=
EXTT0=
EXTT1=
EXTT2=
EXTT3=
EXTT4=
EXTT5=
EXTT6=
EXTT7=
EXTT8=
EXTT9=
EXTT10=
EXTT11=
PLAYORDER=
